<mxfile host="app.diagrams.net" agent="Mozilla/5.0 (Windows NT 10.0; Win64; x64) AppleWebKit/537.36 (KHTML, like Gecko) Chrome/140.0.0.0 Safari/537.36" version="28.2.5">
  <diagram name="Page-1" id="hF-xulsBcM0jOpxeOG-p">
    <mxGraphModel dx="1042" dy="562" grid="0" gridSize="10" guides="1" tooltips="1" connect="1" arrows="1" fold="1" page="1" pageScale="1" pageWidth="850" pageHeight="1100" background="light-dark(#FFFFFF,#FFFFFF)" math="0" shadow="0">
      <root>
        <mxCell id="0" />
        <mxCell id="1" parent="0" />
        <mxCell id="P0yIx7zQ55TWrJxZz3uX-7" value="" style="rounded=0;whiteSpace=wrap;html=1;fillColor=light-dark(#FFFFFF,#FFCE9F);strokeColor=light-dark(#000000,#FFB570);align=center;" vertex="1" parent="1">
          <mxGeometry x="651" y="124" width="147" height="50.5" as="geometry" />
        </mxCell>
        <mxCell id="P0yIx7zQ55TWrJxZz3uX-1" value="" style="ellipse;whiteSpace=wrap;html=1;aspect=fixed;strokeColor=light-dark(#000000, #1b1d1e);fillColor=light-dark(#FFFFFF,#FFFFFF);" vertex="1" parent="1">
          <mxGeometry x="345" y="67" width="161" height="161" as="geometry" />
        </mxCell>
        <mxCell id="P0yIx7zQ55TWrJxZz3uX-2" value="" style="rounded=0;whiteSpace=wrap;html=1;fillColor=light-dark(#FFFFFF,#FFCE9F);strokeColor=light-dark(#000000,#FFB570);align=center;" vertex="1" parent="1">
          <mxGeometry x="44" y="122.25" width="147" height="50.5" as="geometry" />
        </mxCell>
        <mxCell id="P0yIx7zQ55TWrJxZz3uX-4" value="Student" style="text;html=1;align=center;verticalAlign=middle;whiteSpace=wrap;rounded=0;fontColor=light-dark(#000000,#000000);fontSize=25;fontFamily=Times New Roman;" vertex="1" parent="1">
          <mxGeometry x="87.5" y="132.5" width="60" height="30" as="geometry" />
        </mxCell>
        <mxCell id="P0yIx7zQ55TWrJxZz3uX-8" value="Admin" style="text;html=1;align=center;verticalAlign=middle;whiteSpace=wrap;rounded=0;fontColor=light-dark(#000000,#000000);fontSize=25;fontFamily=Times New Roman;" vertex="1" parent="1">
          <mxGeometry x="694.5" y="132.5" width="60" height="30" as="geometry" />
        </mxCell>
        <mxCell id="P0yIx7zQ55TWrJxZz3uX-9" value="" style="endArrow=none;html=1;rounded=0;strokeColor=light-dark(#000000,#000000);entryX=0.925;entryY=0.251;entryDx=0;entryDy=0;entryPerimeter=0;" edge="1" parent="1">
          <mxGeometry width="50" height="50" relative="1" as="geometry">
            <mxPoint x="356.04" y="106.59" as="sourcePoint" />
            <mxPoint x="494.965" y="106.00100000000006" as="targetPoint" />
            <Array as="points" />
          </mxGeometry>
        </mxCell>
        <mxCell id="P0yIx7zQ55TWrJxZz3uX-10" value="0.0" style="text;html=1;align=center;verticalAlign=middle;whiteSpace=wrap;rounded=0;fillColor=none;fontColor=light-dark(#000000,#000000);fontSize=25;fontFamily=Times New Roman;" vertex="1" parent="1">
          <mxGeometry x="395" y="72" width="60" height="30" as="geometry" />
        </mxCell>
        <mxCell id="P0yIx7zQ55TWrJxZz3uX-11" value="Feedback&lt;div&gt;Analysis&lt;/div&gt;&lt;div&gt;System&lt;/div&gt;" style="text;html=1;align=center;verticalAlign=middle;whiteSpace=wrap;rounded=0;fontColor=light-dark(#000000,#000000);fontFamily=Times New Roman;fontSize=26;" vertex="1" parent="1">
          <mxGeometry x="395.5" y="144.5" width="60" height="30" as="geometry" />
        </mxCell>
        <mxCell id="P0yIx7zQ55TWrJxZz3uX-13" value="" style="endArrow=classic;html=1;rounded=0;fontColor=light-dark(#000000,#000000);labelBackgroundColor=none;labelBorderColor=light-dark(#000000,#000000);strokeColor=light-dark(#000000,#000000);exitX=1;exitY=0.5;exitDx=0;exitDy=0;entryX=0.011;entryY=0.395;entryDx=0;entryDy=0;entryPerimeter=0;" edge="1" parent="1" target="P0yIx7zQ55TWrJxZz3uX-1">
          <mxGeometry width="50" height="50" relative="1" as="geometry">
            <mxPoint x="191" y="131.5" as="sourcePoint" />
            <mxPoint x="345" y="132" as="targetPoint" />
            <Array as="points" />
          </mxGeometry>
        </mxCell>
        <mxCell id="P0yIx7zQ55TWrJxZz3uX-15" value="" style="endArrow=classic;html=1;rounded=0;fontColor=light-dark(#000000,#000000);labelBackgroundColor=none;labelBorderColor=light-dark(#000000,#000000);strokeColor=light-dark(#000000,#000000);entryX=1;entryY=0.75;entryDx=0;entryDy=0;exitX=0.012;exitY=0.578;exitDx=0;exitDy=0;exitPerimeter=0;" edge="1" parent="1" source="P0yIx7zQ55TWrJxZz3uX-1" target="P0yIx7zQ55TWrJxZz3uX-2">
          <mxGeometry width="50" height="50" relative="1" as="geometry">
            <mxPoint x="343" y="159" as="sourcePoint" />
            <mxPoint x="191" y="160" as="targetPoint" />
            <Array as="points" />
          </mxGeometry>
        </mxCell>
        <mxCell id="P0yIx7zQ55TWrJxZz3uX-16" value="" style="endArrow=classic;html=1;rounded=0;fontColor=light-dark(#000000,#000000);labelBackgroundColor=none;labelBorderColor=light-dark(#000000,#000000);strokeColor=light-dark(#000000,#000000);" edge="1" parent="1">
          <mxGeometry width="50" height="50" relative="1" as="geometry">
            <mxPoint x="506" y="162" as="sourcePoint" />
            <mxPoint x="652" y="162" as="targetPoint" />
            <Array as="points" />
          </mxGeometry>
        </mxCell>
        <mxCell id="P0yIx7zQ55TWrJxZz3uX-17" value="" style="endArrow=classic;html=1;rounded=0;fontColor=light-dark(#000000,#000000);labelBackgroundColor=none;labelBorderColor=light-dark(#000000,#000000);strokeColor=light-dark(#000000,#000000);exitX=0.012;exitY=0.578;exitDx=0;exitDy=0;exitPerimeter=0;" edge="1" parent="1">
          <mxGeometry width="50" height="50" relative="1" as="geometry">
            <mxPoint x="651" y="136" as="sourcePoint" />
            <mxPoint x="504" y="136" as="targetPoint" />
            <Array as="points" />
          </mxGeometry>
        </mxCell>
        <mxCell id="P0yIx7zQ55TWrJxZz3uX-18" value="&lt;font style=&quot;color: light-dark(rgb(0, 0, 0), rgb(0, 0, 0));&quot;&gt;Feedback&lt;/font&gt;" style="text;html=1;align=center;verticalAlign=middle;whiteSpace=wrap;rounded=0;fontColor=light-dark(#000000,#000000);fontFamily=Times New Roman;fontSize=17;" vertex="1" parent="1">
          <mxGeometry x="233" y="102.5" width="60" height="30" as="geometry" />
        </mxCell>
        <mxCell id="P0yIx7zQ55TWrJxZz3uX-19" value="&lt;font style=&quot;color: light-dark(rgb(0, 0, 0), rgb(0, 0, 0));&quot;&gt;Acknowledgement&amp;nbsp;&lt;/font&gt;" style="text;html=1;align=center;verticalAlign=middle;whiteSpace=wrap;rounded=0;fontColor=light-dark(#000000,#000000);fontFamily=Times New Roman;fontSize=17;" vertex="1" parent="1">
          <mxGeometry x="246" y="157" width="60" height="30" as="geometry" />
        </mxCell>
        <mxCell id="P0yIx7zQ55TWrJxZz3uX-21" value="&lt;font style=&quot;color: light-dark(rgb(0, 0, 0), rgb(0, 0, 0));&quot;&gt;Queries Details&lt;/font&gt;" style="text;html=1;align=center;verticalAlign=middle;whiteSpace=wrap;rounded=0;fontColor=light-dark(#000000,#000000);fontFamily=Times New Roman;fontSize=17;" vertex="1" parent="1">
          <mxGeometry x="519" y="109" width="119" height="30" as="geometry" />
        </mxCell>
        <mxCell id="P0yIx7zQ55TWrJxZz3uX-22" value="Report Information" style="text;html=1;align=center;verticalAlign=middle;whiteSpace=wrap;rounded=0;fontColor=light-dark(#000000,#000000);fontFamily=Times New Roman;fontSize=17;" vertex="1" parent="1">
          <mxGeometry x="542" y="167" width="60" height="30" as="geometry" />
        </mxCell>
        <mxCell id="P0yIx7zQ55TWrJxZz3uX-23" value="Context Level(0 level)" style="text;html=1;align=center;verticalAlign=middle;whiteSpace=wrap;rounded=0;fontColor=light-dark(#000000,#000000);fontFamily=Garamond;fontSize=20;fontStyle=1" vertex="1" parent="1">
          <mxGeometry x="308.25" y="236" width="234.5" height="30" as="geometry" />
        </mxCell>
        <mxCell id="P0yIx7zQ55TWrJxZz3uX-24" value="" style="ellipse;whiteSpace=wrap;html=1;aspect=fixed;fillColor=light-dark(#FFFFFF,#FFFFFF);fontColor=light-dark(#000000,#000000);strokeColor=light-dark(#000000,#000000);" vertex="1" parent="1">
          <mxGeometry x="358.5" y="430" width="134" height="134" as="geometry" />
        </mxCell>
        <mxCell id="P0yIx7zQ55TWrJxZz3uX-25" value="" style="endArrow=none;html=1;rounded=0;strokeColor=light-dark(#000000,#000000);exitX=0.044;exitY=0.291;exitDx=0;exitDy=0;exitPerimeter=0;" edge="1" parent="1" source="P0yIx7zQ55TWrJxZz3uX-24">
          <mxGeometry width="50" height="50" relative="1" as="geometry">
            <mxPoint x="375" y="468" as="sourcePoint" />
            <mxPoint x="485" y="468" as="targetPoint" />
          </mxGeometry>
        </mxCell>
        <mxCell id="P0yIx7zQ55TWrJxZz3uX-26" value="" style="ellipse;whiteSpace=wrap;html=1;aspect=fixed;fillColor=light-dark(#FFFFFF,#FFFFFF);fontColor=light-dark(#000000,#000000);strokeColor=light-dark(#000000,#000000);" vertex="1" parent="1">
          <mxGeometry x="358.5" y="601" width="134" height="134" as="geometry" />
        </mxCell>
        <mxCell id="P0yIx7zQ55TWrJxZz3uX-27" value="" style="ellipse;whiteSpace=wrap;html=1;aspect=fixed;fillColor=light-dark(#FFFFFF,#FFFFFF);fontColor=light-dark(#000000,#000000);strokeColor=light-dark(#000000,#000000);" vertex="1" parent="1">
          <mxGeometry x="358.5" y="763" width="134" height="134" as="geometry" />
        </mxCell>
        <mxCell id="P0yIx7zQ55TWrJxZz3uX-28" value="" style="endArrow=none;html=1;rounded=0;strokeColor=light-dark(#000000,#000000);exitX=0.044;exitY=0.291;exitDx=0;exitDy=0;exitPerimeter=0;" edge="1" parent="1">
          <mxGeometry width="50" height="50" relative="1" as="geometry">
            <mxPoint x="365" y="640" as="sourcePoint" />
            <mxPoint x="486" y="639" as="targetPoint" />
          </mxGeometry>
        </mxCell>
        <mxCell id="P0yIx7zQ55TWrJxZz3uX-29" value="" style="endArrow=none;html=1;rounded=0;strokeColor=light-dark(#000000,#000000);exitX=0.044;exitY=0.291;exitDx=0;exitDy=0;exitPerimeter=0;" edge="1" parent="1">
          <mxGeometry width="50" height="50" relative="1" as="geometry">
            <mxPoint x="365" y="802" as="sourcePoint" />
            <mxPoint x="486" y="801" as="targetPoint" />
          </mxGeometry>
        </mxCell>
        <mxCell id="P0yIx7zQ55TWrJxZz3uX-30" value="" style="rounded=0;whiteSpace=wrap;html=1;strokeColor=light-dark(#000000,#FFB570);fillColor=light-dark(#FFFFFF,#FFCE9F);" vertex="1" parent="1">
          <mxGeometry x="75" y="461" width="129" height="50" as="geometry" />
        </mxCell>
        <mxCell id="P0yIx7zQ55TWrJxZz3uX-31" value="" style="rounded=0;whiteSpace=wrap;html=1;strokeColor=light-dark(#000000,#FFB570);fillColor=light-dark(#FFFFFF,#FFCE9F);" vertex="1" parent="1">
          <mxGeometry x="663" y="830" width="129" height="50" as="geometry" />
        </mxCell>
        <mxCell id="P0yIx7zQ55TWrJxZz3uX-32" value="1.0" style="text;html=1;align=center;verticalAlign=middle;whiteSpace=wrap;rounded=0;fillColor=none;fontColor=light-dark(#000000,#000000);fontSize=22;fontFamily=Times New Roman;" vertex="1" parent="1">
          <mxGeometry x="395.5" y="436" width="60" height="30" as="geometry" />
        </mxCell>
        <mxCell id="P0yIx7zQ55TWrJxZz3uX-50" value="" style="edgeStyle=orthogonalEdgeStyle;rounded=0;orthogonalLoop=1;jettySize=auto;html=1;" edge="1" parent="1" source="P0yIx7zQ55TWrJxZz3uX-33" target="P0yIx7zQ55TWrJxZz3uX-35">
          <mxGeometry relative="1" as="geometry" />
        </mxCell>
        <mxCell id="P0yIx7zQ55TWrJxZz3uX-33" value="2.0" style="text;html=1;align=center;verticalAlign=middle;whiteSpace=wrap;rounded=0;fillColor=none;fontColor=light-dark(#000000,#000000);fontSize=22;fontFamily=Times New Roman;" vertex="1" parent="1">
          <mxGeometry x="395.5" y="606" width="60" height="30" as="geometry" />
        </mxCell>
        <mxCell id="P0yIx7zQ55TWrJxZz3uX-34" value="3.0" style="text;html=1;align=center;verticalAlign=middle;whiteSpace=wrap;rounded=0;fillColor=none;fontColor=light-dark(#000000,#000000);fontSize=22;fontFamily=Times New Roman;" vertex="1" parent="1">
          <mxGeometry x="395.5" y="767" width="60" height="30" as="geometry" />
        </mxCell>
        <mxCell id="P0yIx7zQ55TWrJxZz3uX-35" value="Feedback&lt;div&gt;Collection&lt;/div&gt;" style="text;html=1;align=center;verticalAlign=middle;whiteSpace=wrap;rounded=0;fontColor=light-dark(#000000,#000000);fontSize=20;fontFamily=Times New Roman;" vertex="1" parent="1">
          <mxGeometry x="395" y="494" width="60" height="30" as="geometry" />
        </mxCell>
        <mxCell id="P0yIx7zQ55TWrJxZz3uX-36" value="Analyze&lt;div&gt;Feedback&lt;/div&gt;" style="text;html=1;align=center;verticalAlign=middle;whiteSpace=wrap;rounded=0;fontColor=light-dark(#000000,#000000);fontSize=20;fontFamily=Times New Roman;" vertex="1" parent="1">
          <mxGeometry x="395" y="662" width="60" height="30" as="geometry" />
        </mxCell>
        <mxCell id="P0yIx7zQ55TWrJxZz3uX-37" value="Generate&lt;div&gt;Report&lt;/div&gt;" style="text;html=1;align=center;verticalAlign=middle;whiteSpace=wrap;rounded=0;fontColor=light-dark(#000000,#000000);fontSize=20;fontFamily=Times New Roman;" vertex="1" parent="1">
          <mxGeometry x="395.5" y="834" width="60" height="30" as="geometry" />
        </mxCell>
        <mxCell id="P0yIx7zQ55TWrJxZz3uX-38" value="Student" style="text;html=1;align=center;verticalAlign=middle;whiteSpace=wrap;rounded=0;fontColor=light-dark(#000000,#000000);fontFamily=Times New Roman;fontSize=23;" vertex="1" parent="1">
          <mxGeometry x="109.5" y="471" width="60" height="30" as="geometry" />
        </mxCell>
        <mxCell id="P0yIx7zQ55TWrJxZz3uX-39" value="Admin" style="text;html=1;align=center;verticalAlign=middle;whiteSpace=wrap;rounded=0;fontColor=light-dark(#000000,#000000);fontFamily=Times New Roman;fontSize=23;" vertex="1" parent="1">
          <mxGeometry x="697.5" y="840" width="60" height="30" as="geometry" />
        </mxCell>
        <mxCell id="P0yIx7zQ55TWrJxZz3uX-40" style="edgeStyle=orthogonalEdgeStyle;rounded=0;orthogonalLoop=1;jettySize=auto;html=1;exitX=0.5;exitY=1;exitDx=0;exitDy=0;" edge="1" parent="1" source="P0yIx7zQ55TWrJxZz3uX-39" target="P0yIx7zQ55TWrJxZz3uX-39">
          <mxGeometry relative="1" as="geometry" />
        </mxCell>
        <mxCell id="P0yIx7zQ55TWrJxZz3uX-41" value="" style="endArrow=classic;html=1;rounded=0;exitX=1;exitY=0.5;exitDx=0;exitDy=0;strokeColor=light-dark(#000000,#000000);entryX=0.004;entryY=0.418;entryDx=0;entryDy=0;entryPerimeter=0;" edge="1" parent="1" source="P0yIx7zQ55TWrJxZz3uX-30" target="P0yIx7zQ55TWrJxZz3uX-24">
          <mxGeometry width="50" height="50" relative="1" as="geometry">
            <mxPoint x="281" y="534" as="sourcePoint" />
            <mxPoint x="331" y="484" as="targetPoint" />
          </mxGeometry>
        </mxCell>
        <mxCell id="P0yIx7zQ55TWrJxZz3uX-42" value="" style="endArrow=classic;html=1;rounded=0;exitX=1;exitY=0.5;exitDx=0;exitDy=0;strokeColor=light-dark(#000000,#000000);entryX=0;entryY=0.5;entryDx=0;entryDy=0;" edge="1" parent="1" target="P0yIx7zQ55TWrJxZz3uX-31">
          <mxGeometry width="50" height="50" relative="1" as="geometry">
            <mxPoint x="488" y="852" as="sourcePoint" />
            <mxPoint x="643" y="852" as="targetPoint" />
            <Array as="points">
              <mxPoint x="566" y="852" />
            </Array>
          </mxGeometry>
        </mxCell>
        <mxCell id="P0yIx7zQ55TWrJxZz3uX-45" value="" style="endArrow=classic;html=1;rounded=0;strokeColor=light-dark(#000000,#000000);" edge="1" parent="1">
          <mxGeometry width="50" height="50" relative="1" as="geometry">
            <mxPoint x="663" y="874" as="sourcePoint" />
            <mxPoint x="477" y="871" as="targetPoint" />
          </mxGeometry>
        </mxCell>
        <mxCell id="P0yIx7zQ55TWrJxZz3uX-46" value="&lt;div&gt;Submits Feedback&lt;/div&gt;" style="text;html=1;align=center;verticalAlign=middle;whiteSpace=wrap;rounded=0;fontColor=light-dark(#000000,#000000);fontFamily=Times New Roman;fontSize=15;" vertex="1" parent="1">
          <mxGeometry x="216" y="461" width="120" height="30" as="geometry" />
        </mxCell>
        <mxCell id="P0yIx7zQ55TWrJxZz3uX-47" value="Reports" style="text;html=1;align=center;verticalAlign=middle;whiteSpace=wrap;rounded=0;fontColor=light-dark(#000000,#000000);fontFamily=Times New Roman;fontSize=15;" vertex="1" parent="1">
          <mxGeometry x="503" y="824" width="120" height="30" as="geometry" />
        </mxCell>
        <mxCell id="P0yIx7zQ55TWrJxZz3uX-48" value="Requests" style="text;html=1;align=center;verticalAlign=middle;whiteSpace=wrap;rounded=0;fontColor=light-dark(#000000,#000000);fontFamily=Times New Roman;fontSize=15;" vertex="1" parent="1">
          <mxGeometry x="509" y="870" width="120" height="30" as="geometry" />
        </mxCell>
        <mxCell id="P0yIx7zQ55TWrJxZz3uX-49" value="" style="endArrow=classic;html=1;rounded=0;entryX=0.5;entryY=0;entryDx=0;entryDy=0;strokeColor=light-dark(#000000,#000000);" edge="1" parent="1" target="P0yIx7zQ55TWrJxZz3uX-26">
          <mxGeometry width="50" height="50" relative="1" as="geometry">
            <mxPoint x="425" y="564" as="sourcePoint" />
            <mxPoint x="475" y="514" as="targetPoint" />
          </mxGeometry>
        </mxCell>
        <mxCell id="P0yIx7zQ55TWrJxZz3uX-51" value="" style="endArrow=classic;html=1;rounded=0;entryX=0.5;entryY=0;entryDx=0;entryDy=0;strokeColor=light-dark(#000000,#000000);" edge="1" parent="1">
          <mxGeometry width="50" height="50" relative="1" as="geometry">
            <mxPoint x="425" y="733" as="sourcePoint" />
            <mxPoint x="425" y="763" as="targetPoint" />
          </mxGeometry>
        </mxCell>
        <mxCell id="P0yIx7zQ55TWrJxZz3uX-52" value="" style="endArrow=none;html=1;rounded=0;strokeColor=light-dark(#000000,#000000);" edge="1" parent="1">
          <mxGeometry width="50" height="50" relative="1" as="geometry">
            <mxPoint x="647.5" y="494" as="sourcePoint" />
            <mxPoint x="789" y="494" as="targetPoint" />
          </mxGeometry>
        </mxCell>
        <mxCell id="P0yIx7zQ55TWrJxZz3uX-53" value="" style="endArrow=none;html=1;rounded=0;strokeColor=light-dark(#000000,#000000);" edge="1" parent="1">
          <mxGeometry width="50" height="50" relative="1" as="geometry">
            <mxPoint x="648" y="535" as="sourcePoint" />
            <mxPoint x="789.5" y="535" as="targetPoint" />
          </mxGeometry>
        </mxCell>
        <mxCell id="P0yIx7zQ55TWrJxZz3uX-54" value="Feedback" style="text;html=1;align=center;verticalAlign=middle;whiteSpace=wrap;rounded=0;fontColor=light-dark(#000000,#000000);fontFamily=Times New Roman;fontSize=23;" vertex="1" parent="1">
          <mxGeometry x="694.5" y="499" width="60" height="30" as="geometry" />
        </mxCell>
        <mxCell id="P0yIx7zQ55TWrJxZz3uX-55" value="" style="endArrow=classic;html=1;rounded=0;strokeColor=light-dark(#000000,#000000);" edge="1" parent="1">
          <mxGeometry width="50" height="50" relative="1" as="geometry">
            <mxPoint x="490" y="516" as="sourcePoint" />
            <mxPoint x="664" y="516" as="targetPoint" />
          </mxGeometry>
        </mxCell>
        <mxCell id="P0yIx7zQ55TWrJxZz3uX-56" value="Stores Feedback" style="text;html=1;align=center;verticalAlign=middle;whiteSpace=wrap;rounded=0;fontColor=light-dark(#000000,#000000);fontFamily=Times New Roman;fontSize=15;" vertex="1" parent="1">
          <mxGeometry x="512" y="487" width="120" height="30" as="geometry" />
        </mxCell>
        <mxCell id="P0yIx7zQ55TWrJxZz3uX-57" value="" style="endArrow=classic;html=1;rounded=0;strokeColor=light-dark(#000000,#000000);flowAnimation=0;jumpStyle=arc;" edge="1" parent="1">
          <mxGeometry width="50" height="50" relative="1" as="geometry">
            <mxPoint x="489" y="651" as="sourcePoint" />
            <mxPoint x="652" y="539" as="targetPoint" />
            <Array as="points">
              <mxPoint x="652" y="651" />
            </Array>
          </mxGeometry>
        </mxCell>
        <mxCell id="P0yIx7zQ55TWrJxZz3uX-65" value="" style="endArrow=classic;html=1;rounded=0;strokeColor=light-dark(#000000,#000000);entryX=0.993;entryY=0.555;entryDx=0;entryDy=0;entryPerimeter=0;" edge="1" parent="1" target="P0yIx7zQ55TWrJxZz3uX-26">
          <mxGeometry width="50" height="50" relative="1" as="geometry">
            <mxPoint x="678" y="537" as="sourcePoint" />
            <mxPoint x="680" y="792" as="targetPoint" />
            <Array as="points">
              <mxPoint x="678" y="673" />
            </Array>
          </mxGeometry>
        </mxCell>
        <mxCell id="P0yIx7zQ55TWrJxZz3uX-68" value="Requests to Data" style="text;html=1;align=center;verticalAlign=middle;whiteSpace=wrap;rounded=0;fontColor=light-dark(#000000,#000000);fontFamily=Times New Roman;fontSize=15;" vertex="1" parent="1">
          <mxGeometry x="509" y="623" width="120" height="30" as="geometry" />
        </mxCell>
        <mxCell id="P0yIx7zQ55TWrJxZz3uX-69" value="Provides Data" style="text;html=1;align=center;verticalAlign=middle;whiteSpace=wrap;rounded=0;fontColor=light-dark(#000000,#000000);fontFamily=Times New Roman;fontSize=15;" vertex="1" parent="1">
          <mxGeometry x="518" y="675" width="120" height="30" as="geometry" />
        </mxCell>
        <mxCell id="P0yIx7zQ55TWrJxZz3uX-70" value="Level 1" style="text;html=1;align=center;verticalAlign=middle;whiteSpace=wrap;rounded=0;fontColor=light-dark(#000000,#000000);fontFamily=Garamond;fontSize=20;fontStyle=1" vertex="1" parent="1">
          <mxGeometry x="308.25" y="916" width="234.5" height="30" as="geometry" />
        </mxCell>
      </root>
    </mxGraphModel>
  </diagram>
</mxfile>
